<svg width="120" height="39" viewBox="0 0 120 39" fill="none" xmlns="http://www.w3.org/2000/svg">
<g clip-path="url(#clip0_1060_86239)">
<path opacity="0.85" d="M16.866 6.5159L9.60274 17.588C9.52938 17.6997 9.49023 17.8309 9.49023 17.9652C9.49023 18.0994 9.52938 18.2307 9.60274 18.3423L17.4228 30.2716L25.2428 18.3423C25.3151 18.2303 25.3536 18.0992 25.3536 17.9652C25.3536 17.8312 25.3151 17.7001 25.2428 17.588L17.9795 6.5159C17.9182 6.42309 17.8353 6.34704 17.7382 6.29445C17.6411 6.24186 17.5328 6.21436 17.4228 6.21436C17.3127 6.21436 17.2044 6.24186 17.1073 6.29445C17.0102 6.34704 16.9274 6.42309 16.866 6.5159Z" fill="#27AE60"/>
<path opacity="0.8" d="M28.9982 20.6121L25.955 8.12783C25.9294 8.01777 25.8771 7.91597 25.8028 7.83172C25.7286 7.74748 25.6347 7.68347 25.5299 7.64554C25.425 7.60761 25.3125 7.59697 25.2026 7.61459C25.0926 7.63221 24.9888 7.67753 24.9005 7.7464L14.3789 15.675C14.2718 15.7554 14.1908 15.8665 14.1465 15.9941C14.1021 16.1216 14.0964 16.2598 14.13 16.3907L17.5212 30.3021L28.4878 22.0285C28.7016 21.8705 28.8642 21.6514 28.9551 21.3992C29.0459 21.147 29.061 20.873 28.9982 20.6121Z" fill="#EB5756"/>
<path opacity="0.7" d="M9.12914 8.09146L5.97835 21.0129C5.94687 21.1431 5.95389 21.2798 5.99853 21.406C6.04317 21.5322 6.12345 21.6421 6.22932 21.7222L17.5566 30.2657L20.9478 16.3522C20.9795 16.2222 20.9728 16.0856 20.9285 15.9594C20.8843 15.8333 20.8044 15.7232 20.6989 15.6429L10.1773 7.71432C10.089 7.64797 9.9861 7.60465 9.87752 7.58817C9.76894 7.57169 9.65804 7.58254 9.55455 7.61978C9.45106 7.65701 9.35815 7.71949 9.28398 7.80174C9.2098 7.88398 9.15664 7.98346 9.12914 8.09146Z" fill="#2D9DDB"/>
<path d="M48.9852 18.4478H45.7016C45.6529 18.0437 45.5313 17.6522 45.3431 17.2928C45.1624 16.9635 44.9211 16.6725 44.6323 16.4357C44.3333 16.1936 43.994 16.0078 43.6306 15.8871C43.2341 15.7574 42.8197 15.693 42.4032 15.6964C41.667 15.679 40.9429 15.8881 40.3258 16.2964C39.7118 16.7265 39.2353 17.3299 38.955 18.0321C38.6044 18.9055 38.4343 19.8427 38.4552 20.7857C38.4273 21.7451 38.5946 22.7 38.9466 23.5907C39.2143 24.2857 39.6873 24.8793 40.3006 25.2899C40.914 25.7005 41.6374 25.9079 42.3715 25.8836C42.7813 25.8871 43.1893 25.8286 43.5821 25.71C43.9405 25.5997 44.2769 25.4255 44.5754 25.1957C44.8656 24.9687 45.111 24.6881 45.2988 24.3686C45.4983 24.0257 45.6348 23.6489 45.7016 23.2564L48.9852 23.2714C48.8989 23.9939 48.6846 24.6944 48.3525 25.3393C48.0095 26.0101 47.5493 26.612 46.9944 27.1157C46.4014 27.6522 45.7147 28.0708 44.9698 28.35C44.1206 28.6634 43.2222 28.8167 42.3188 28.8021C41.034 28.8244 39.7666 28.4982 38.6471 27.8571C37.5558 27.2142 36.6704 26.2647 36.0974 25.1228C35.4759 23.93 35.1645 22.4843 35.1631 20.7857C35.1617 19.0871 35.4766 17.6393 36.1079 16.4421C36.6885 15.3017 37.5794 14.3548 38.6745 13.7143C39.7857 13.0778 41.0433 12.7524 42.3188 12.7714C43.1595 12.7644 43.9959 12.8931 44.7968 13.1528C45.5319 13.3936 46.2174 13.7691 46.8193 14.2607C47.4129 14.7496 47.9041 15.3543 48.264 16.0393C48.652 16.7886 48.8967 17.6059 48.9852 18.4478Z" fill="white"/>
<path d="M54.5417 28.8108C53.8665 28.8228 53.1966 28.6892 52.5761 28.4186C52.021 28.1724 51.5483 27.7674 51.2158 27.2529C50.8667 26.6738 50.6936 26.003 50.7181 25.3244C50.699 24.7573 50.8201 24.1944 51.0703 23.6872C51.2953 23.253 51.6256 22.8842 52.0299 22.6158C52.4552 22.3369 52.9225 22.1306 53.4134 22.0051C53.9483 21.8647 54.4935 21.768 55.0436 21.7158C55.7142 21.6444 56.2541 21.5772 56.6633 21.5144C56.9775 21.4829 57.2819 21.3859 57.5575 21.2294C57.6472 21.1674 57.7198 21.083 57.7682 20.9843C57.8165 20.8856 57.8391 20.7759 57.8337 20.6658V20.6186C57.8455 20.4104 57.8117 20.202 57.7347 20.0086C57.6578 19.8152 57.5396 19.6415 57.3888 19.5001C57.0286 19.2158 56.5784 19.0755 56.1234 19.1058C55.6376 19.0793 55.1565 19.2139 54.7525 19.4894C54.4271 19.7243 54.1893 20.0641 54.0777 20.4536L51.1251 20.2094C51.2612 19.5276 51.5652 18.8921 52.0088 18.3622C52.4726 17.8257 53.0583 17.4123 53.7149 17.1579C54.4899 16.8596 55.3138 16.7141 56.1424 16.7294C56.763 16.7267 57.3815 16.803 57.9835 16.9565C58.5429 17.097 59.0735 17.3371 59.5504 17.6658C60.0038 17.9813 60.3757 18.4032 60.6344 18.8958C60.9109 19.4518 61.0472 20.0688 61.0309 20.6915V28.5858H57.9961V26.9615H57.9054C57.7203 27.3278 57.4684 27.655 57.1631 27.9258C56.8342 28.2105 56.4548 28.4287 56.0453 28.5686C55.561 28.7342 55.0527 28.8161 54.5417 28.8108ZM55.4654 26.5715C55.8968 26.581 56.324 26.4831 56.7097 26.2865C57.0535 26.1094 57.3447 25.8424 57.5533 25.5129C57.7594 25.1834 57.8664 24.7998 57.8612 24.4094V23.1665C57.7338 23.2452 57.596 23.3051 57.452 23.3444C57.2791 23.3979 57.0851 23.4472 56.8721 23.4901C56.6591 23.5329 56.4503 23.5715 56.2267 23.6036L55.6404 23.6915C55.3029 23.7375 54.9726 23.8275 54.6576 23.9594C54.4026 24.0634 54.1781 24.2324 54.006 24.4501C53.8464 24.6722 53.7647 24.9423 53.774 25.2172C53.7635 25.4126 53.8017 25.6075 53.885 25.7839C53.9683 25.9603 54.0941 26.1126 54.2506 26.2265C54.609 26.4701 55.0346 26.591 55.4654 26.5715Z" fill="white"/>
<path d="M66.7068 12.9835V28.5899H63.5117V12.9835H66.7068Z" fill="white"/>
<path d="M72.4509 12.9835V28.5899H69.2559V12.9835H72.4509Z" fill="white"/>
<path d="M76.6121 15.3772C76.159 15.3853 75.7208 15.213 75.391 14.8971C75.2305 14.751 75.1021 14.5722 75.0142 14.3722C74.9263 14.1723 74.8809 13.9558 74.8809 13.7368C74.8809 13.5178 74.9263 13.3013 75.0142 13.1013C75.1021 12.9014 75.2305 12.7225 75.391 12.5764C75.7173 12.2586 76.1539 12.0846 76.6058 12.0921C77.0603 12.0829 77.5003 12.2553 77.8311 12.5721C77.9922 12.7169 78.1208 12.8951 78.2081 13.0948C78.2954 13.2944 78.3395 13.5108 78.3373 13.7293C78.339 13.9486 78.2948 14.1658 78.2075 14.3665C78.1202 14.5671 77.9919 14.7465 77.8311 14.8929C77.5035 15.2113 77.0654 15.3854 76.6121 15.3772ZM75.0009 28.59V16.8857H78.196V28.59H75.0009Z" fill="white"/>
<path d="M80.7461 32.9786V16.8857H83.8948V18.8571H84.0382C84.1984 18.5092 84.4042 18.1849 84.6498 17.8929C84.9404 17.5463 85.2997 17.2659 85.7043 17.07C86.2071 16.8331 86.7572 16.718 87.3113 16.7336C88.131 16.7283 88.9354 16.9594 89.6311 17.4C90.378 17.8857 90.9694 18.5819 91.3331 19.4036C91.7549 20.295 91.9658 21.4114 91.9658 22.7529C91.9658 24.0571 91.7591 25.1579 91.3457 26.055C90.9885 26.8848 90.4025 27.5918 89.6586 28.0907C88.9576 28.545 88.1427 28.7846 87.3113 28.7807C86.7691 28.7963 86.2304 28.6894 85.7338 28.4679C85.3334 28.2803 84.9746 28.012 84.6793 27.6793C84.422 27.3919 84.2087 27.0668 84.0466 26.715H83.937V32.9786H80.7461ZM83.8716 22.7379C83.8588 23.3576 83.956 23.9746 84.1584 24.5593C84.3171 25.0317 84.6028 25.4496 84.983 25.7657C85.3657 26.0477 85.8263 26.1995 86.299 26.1995C86.7717 26.1995 87.2323 26.0477 87.615 25.7657C87.9944 25.4444 88.2784 25.0223 88.4354 24.5464C88.6328 23.9672 88.7284 23.3572 88.718 22.7443C88.7291 22.138 88.6349 21.5344 88.4396 20.9614C88.2834 20.4905 88.0007 20.0734 87.6234 19.7571C87.2383 19.4768 86.7771 19.3248 86.3034 19.3221C85.8297 19.3194 85.3669 19.4662 84.9788 19.7421C84.6007 20.0514 84.3163 20.4629 84.1584 20.9293C83.9564 21.5097 83.8592 22.1224 83.8716 22.7379Z" fill="white"/>
<path d="M99.3515 28.8193C98.2871 28.8488 97.2335 28.5947 96.2957 28.0822C95.4503 27.6005 94.7653 26.8739 94.328 25.9951C93.8441 24.9965 93.6067 23.8934 93.6362 22.7808C93.6123 21.6825 93.8496 20.5945 94.328 19.6093C94.7632 18.7268 95.4379 17.9892 96.2725 17.4836C97.1696 16.9603 98.1908 16.6972 99.225 16.7229C99.9495 16.7165 100.669 16.8413 101.351 17.0915C101.998 17.3359 102.587 17.7189 103.076 18.2143C103.588 18.7405 103.981 19.3738 104.227 20.0701C104.52 20.9075 104.663 21.7914 104.649 22.6801V23.5715H94.9037V21.5572H101.631C101.64 21.1234 101.537 20.6949 101.332 20.3143C101.138 19.957 100.851 19.6605 100.503 19.4572C100.129 19.2459 99.7058 19.1394 99.2777 19.1486C98.8262 19.1395 98.381 19.2574 97.9913 19.4893C97.6254 19.707 97.3232 20.0199 97.116 20.3958C96.9051 20.7811 96.7947 21.2149 96.7955 21.6558V23.5715C96.7819 24.0902 96.8911 24.6046 97.1139 25.0715C97.3132 25.4807 97.6273 25.8207 98.0166 26.0486C98.4412 26.2855 98.92 26.4038 99.4043 26.3915C99.735 26.3949 100.064 26.3435 100.379 26.2393C100.661 26.1444 100.921 25.9879 101.138 25.7808C101.35 25.5718 101.514 25.317 101.617 25.0351L104.569 25.2322C104.43 25.9313 104.114 26.5814 103.652 27.1179C103.162 27.6744 102.549 28.1041 101.863 28.3715C101.062 28.683 100.209 28.8351 99.3515 28.8193Z" fill="white"/>
<path d="M106.724 28.59V16.8857H109.822V18.9279H109.94C110.102 18.2744 110.473 17.6941 110.994 17.2779C111.489 16.9031 112.092 16.7049 112.709 16.7143C112.882 16.7152 113.054 16.7259 113.226 16.7464C113.39 16.762 113.553 16.7899 113.713 16.83V19.7143C113.505 19.6578 113.294 19.6169 113.08 19.5922C112.839 19.5589 112.596 19.541 112.352 19.5386C111.912 19.5293 111.476 19.6356 111.087 19.8472C110.726 20.0477 110.426 20.344 110.218 20.7043C110.001 21.0892 109.891 21.527 109.9 21.9707V28.5922L106.724 28.59Z" fill="white"/>
</g>
<defs>
<clipPath id="clip0_1060_86239">
<rect width="120" height="39" fill="white"/>
</clipPath>
</defs>
</svg>
