<svg width="98" height="43" viewBox="0 0 98 43" fill="none" xmlns="http://www.w3.org/2000/svg">
<path d="M6.92677 18.2356C9.10845 17.0193 12.0964 15.3531 12.0964 10.5039H8.47836C8.47836 13.2171 7.16212 13.9509 5.16968 15.0617C2.988 16.2785 0 17.9439 0 22.7936H3.61809C3.61809 20.0803 4.93433 19.3465 6.92677 18.2356Z" fill="#FF3C00"/>
<path d="M13.1888 17.1211C13.1888 19.8344 11.8726 20.5682 9.88013 21.6789C7.69903 22.8952 4.71045 24.5611 4.71045 29.4108H8.32839C8.32839 26.6975 9.64463 25.9636 11.6371 24.8528C13.8188 23.6365 16.8066 21.9707 16.8066 17.1211H13.1888Z" fill="#FF3C00"/>
<path d="M25.2095 29.6168V10.5312H28.1917V18.0556C29.1308 16.6647 30.5393 15.9691 32.4172 15.9686C34.019 15.9686 35.2572 16.44 36.1319 17.3827C37.0066 18.3255 37.444 19.6391 37.4441 21.3235V29.6168H34.4619V21.7353C34.4619 19.557 33.486 18.4677 31.5342 18.4674C30.5581 18.4674 29.7572 18.7604 29.1316 19.3462C28.5059 19.932 28.1928 20.7559 28.1922 21.8178V29.6165L25.2095 29.6168Z" fill="white"/>
<path d="M51.5367 27.9698C50.2111 29.2878 48.5449 29.9469 46.5381 29.9469C44.5312 29.9469 42.8603 29.2878 41.5252 27.9698C40.1903 26.6515 39.5228 24.9761 39.5229 22.9436C39.523 20.9111 40.1905 19.2406 41.5252 17.9322C42.8601 16.6235 44.531 15.969 46.5381 15.9688C48.5451 15.9685 50.2113 16.6229 51.5367 17.9322C52.8627 19.2414 53.5255 20.9119 53.5255 22.9436C53.5254 24.9753 52.8625 26.6507 51.5367 27.9698ZM43.7072 26.2944C44.4156 27.1182 45.3592 27.5302 46.5381 27.5302C47.7169 27.5302 48.6605 27.1182 49.3688 26.2944C50.0774 25.4706 50.4318 24.3537 50.4321 22.9436C50.4321 21.5524 50.0731 20.4448 49.3551 19.6208C48.6371 18.7969 47.6981 18.3849 46.5381 18.385C45.3595 18.385 44.4159 18.7924 43.7072 19.607C42.9985 20.4217 42.6441 21.5337 42.6439 22.943C42.6439 24.3537 42.9983 25.4708 43.7072 26.2944Z" fill="white"/>
<path d="M60.4312 29.9464C57.6876 29.9464 56.3157 28.4818 56.3157 25.5525V18.7971H54.2449V16.2983H56.3991L57.0896 12.3721H59.3263V16.2983H64.6566V18.7971H59.3266V25.4702C59.3266 26.697 59.7777 27.3103 60.6798 27.3102C61.5264 27.3102 62.2905 26.5413 62.9721 25.0034L65.2921 26.1843C64.1502 28.6926 62.5299 29.9467 60.4312 29.9464Z" fill="white"/>
<path d="M66.2485 35.7133C64.9228 35.7133 63.8273 35.3471 62.9619 34.6148L64.0667 32.2806C64.6008 32.9028 65.1808 33.2141 65.8067 33.2147C66.6351 33.2147 67.0494 32.6838 67.0494 31.6221V16.2983H70.0316V31.6762C70.0316 33.1043 69.6772 34.1341 68.9683 34.7656C68.2594 35.3971 67.3528 35.713 66.2485 35.7133ZM68.5408 14.0463C68.0504 14.0628 67.5736 13.8851 67.215 13.5521C67.0426 13.3905 66.9067 13.1943 66.8162 12.9765C66.7258 12.7588 66.6829 12.5244 66.6904 12.2889C66.6838 12.0515 66.7271 11.8153 66.8174 11.5954C66.9077 11.3755 67.0431 11.1768 67.215 11.0119C67.5756 10.6851 68.0459 10.5039 68.5338 10.5039C69.0217 10.5039 69.4921 10.6851 69.8527 11.0119C70.0282 11.1748 70.1669 11.3728 70.2598 11.5929C70.3526 11.8131 70.3974 12.0503 70.3912 12.2889C70.3956 12.5232 70.3498 12.7557 70.2569 12.9711C70.1641 13.1865 70.0263 13.3799 69.8527 13.5383C69.6784 13.7047 69.4728 13.8352 69.2477 13.9224C69.0225 14.0095 68.7823 14.0516 68.5408 14.0463V14.0463Z" fill="white"/>
<path d="M77.4394 29.9464C75.9109 29.9464 74.6727 29.5666 73.7247 28.8069C72.7768 28.0472 72.3027 27.0268 72.3025 25.7456C72.3025 24.5741 72.795 23.5807 73.78 22.7655C74.7651 21.9504 76.0032 21.543 77.4946 21.5435C79.0228 21.5435 80.3117 22.0287 81.3612 22.999V21.3786C81.3612 20.427 81.1172 19.6901 80.6292 19.168C80.1412 18.6459 79.4462 18.385 78.5441 18.3853C76.7214 18.3853 75.5891 19.3098 75.1471 21.1588L72.4128 20.5822C72.7806 19.1543 73.508 18.0284 74.5948 17.2045C75.6816 16.3807 77.0348 15.9688 78.6545 15.9688C80.4223 15.9688 81.817 16.431 82.8387 17.3556C83.8604 18.2802 84.3714 19.6303 84.3716 21.4059V29.617H81.4715V27.9416C80.4954 29.2784 79.1514 29.9466 77.4394 29.9464ZM77.9911 27.7496C79.3169 27.7496 80.4402 27.0906 81.361 25.7725V25.3602C80.4401 24.2617 79.3168 23.7125 77.9911 23.7126C77.2179 23.7126 76.5916 23.9004 76.1123 24.276C75.8857 24.442 75.7023 24.6595 75.5774 24.9102C75.4525 25.161 75.3897 25.4378 75.3942 25.7176C75.3869 26.0004 75.4469 26.2808 75.5693 26.5361C75.6917 26.7914 75.8731 27.0144 76.0986 27.1868C76.5691 27.5621 77.2001 27.7497 77.9917 27.7496H77.9911Z" fill="white"/>
<path d="M87.2747 29.6165V16.2979H90.1746V18.6046C90.9108 16.9204 92.1812 16.0782 93.9859 16.0781C95.0534 16.0781 95.9372 16.426 96.6373 17.1216C97.3373 17.8173 97.687 18.7509 97.6864 19.9226C97.679 20.6239 97.5578 21.3194 97.3274 21.9822L94.5932 21.7076C94.6493 21.3437 94.6862 20.977 94.7036 20.6093C94.7036 19.2362 94.1329 18.5497 92.9915 18.5496C92.218 18.5496 91.5689 18.9569 91.0444 19.7716C90.5198 20.5862 90.2574 21.6618 90.2571 22.9984V29.6165H87.2747Z" fill="white"/>
</svg>
