<svg width="111" height="51" viewBox="0 0 111 51" fill="none" xmlns="http://www.w3.org/2000/svg">
<path d="M13.9486 8.59357C15.7844 8.43669 17.2199 9.62321 18.1131 10.9912C18.5298 11.6292 18.8382 12.3259 19.2576 12.9617C19.6955 13.6254 20.2788 14.3018 20.9471 14.7781C21.4068 15.1057 22.0522 15.3121 22.6336 15.2255C22.9371 15.1802 23.2967 15.0602 23.4614 14.8011C23.9783 13.9885 22.5333 13.4292 22.4235 12.7304C22.3663 12.3672 22.4624 11.9183 22.7181 11.631C22.904 11.4221 23.1948 11.2947 23.4836 11.2699C24.7893 11.1577 25.8315 13.098 26.7565 13.7611C27.2438 14.1104 27.8331 14.3258 28.4546 14.2314C28.7858 14.181 29.0792 14.0389 29.2657 13.7731C29.9002 12.869 28.3131 12.1827 28.258 11.4177C28.2472 11.2686 28.2725 11.1718 28.4067 11.0789C29.0155 10.6579 32.5836 11.1896 33.4567 11.36C38.4323 12.3313 42.8575 14.986 45.6235 18.9801C48.2852 22.8233 49.0224 27.637 47.9733 32.0689C46.7688 37.1572 43.6505 41.0996 38.9443 43.8971C38.0092 44.4049 37.0285 44.8367 36.0134 45.1881C31.364 46.7661 26.2329 46.5917 21.7207 44.7023C15.1803 41.9298 11.0493 35.884 10.7326 29.2724C10.6654 27.869 11.1153 25.3687 10.7626 24.1959C10.2896 22.6227 8.22509 22.7427 7.67449 21.2559C7.56893 20.9708 7.56437 20.6581 7.71935 20.3874C7.85557 20.1497 8.09545 19.9846 8.37157 19.9083C8.7364 19.8076 9.11022 19.8672 9.46415 19.9756C11.1172 20.4826 11.2563 21.6829 12.309 22.1772C12.555 22.2927 12.8621 22.347 13.1252 22.247C13.3548 22.1597 13.4872 21.9698 13.5691 21.7612C14.2249 20.0924 12.5813 19.3406 11.9767 18.0495C11.8112 17.6961 11.7821 17.3845 11.9399 17.0258C12.0544 16.7657 12.2455 16.5417 12.5443 16.4512C13.7208 16.0949 14.1331 17.3266 15.0171 17.7089C15.4692 17.9046 15.9496 17.8614 16.4029 17.6891C16.7362 17.5625 16.9605 17.3153 17.0899 17.0073C17.2412 16.647 17.2384 16.2955 17.1658 15.9201C16.8691 14.3867 15.3674 13.6729 14.2625 12.6838C13.7526 12.2273 13.2978 11.7114 13.0113 11.1057C12.7776 10.6116 12.6169 9.95154 12.8553 9.43519C13.0565 8.99934 13.4891 8.7488 13.9486 8.59357Z" fill="#43D675"/>
<path d="M33.2915 27.814L34.6291 27.8513C34.8088 28.6355 34.6266 29.5133 34.6214 30.3143L33.315 30.3224L33.323 31.5233L32.1087 31.5365C32.0622 31.9644 31.9731 32.5075 32.093 32.9223C32.6243 32.5855 34.0523 32.8386 34.7174 32.843C34.729 33.2811 34.738 33.7229 34.6375 34.153L36.0712 34.1324C36.0538 33.6835 36.0825 33.2524 36.1282 32.8056C36.5925 32.8021 37.0454 32.7653 37.5068 32.7192L37.516 30.4242L36.1154 30.3768L36.1148 31.5119C35.651 31.5393 35.2039 31.5256 34.7404 31.4971L34.7043 30.3029C35.1502 30.2776 35.607 30.3039 36.054 30.3123C36.0557 29.8987 36.0834 29.4966 36.1295 29.0853L37.506 29.0867L37.5111 27.851L38.9046 27.8495C38.8996 28.6672 38.9031 29.485 38.9152 30.3027C39.235 30.3072 39.5623 30.299 39.8809 30.3171C40.091 30.3291 40.1721 30.3924 40.3027 30.5379C40.3994 30.8521 40.3302 31.1903 40.2983 31.5118C40.6649 31.496 41.0917 31.4276 41.4109 31.6321C41.5802 31.7407 41.6736 31.8879 41.6954 32.079C41.7283 32.3693 41.5447 32.6544 41.3564 32.8684C40.5886 33.0045 39.6912 32.9167 38.9011 32.9673L38.8979 34.1925C39.5129 34.1893 41.1896 34.0656 41.6495 34.3353C41.7425 34.6869 41.6922 35.1128 41.686 35.4768C41.2456 35.4909 40.8054 35.5087 40.3655 35.5305C40.35 35.9062 40.3172 36.2823 40.2916 36.6575L38.9049 36.6658L38.898 38.0728L40.2646 38.082C40.3478 38.9575 40.2961 39.8662 40.2889 40.7459C39.8038 40.7418 37.9997 40.9089 37.7217 40.6668C37.3958 40.3832 37.5008 39.738 37.5089 39.3668C37.9347 39.3636 38.3597 39.338 38.7848 39.3162L38.8019 38.0723C37.9485 38.0694 37.0952 38.0732 36.242 38.0838L36.2277 38.1229C36.124 38.1117 36.1693 38.11 36.0921 38.1193L36.1039 38.6276L36.0752 39.3547L34.7272 39.3776L34.7142 40.7473C34.2211 40.7627 33.7359 40.758 33.2432 40.736C33.1416 39.8698 33.3244 38.9548 33.328 38.0801C34.2368 38.0594 35.1496 38.0744 36.0588 38.0735C36.0458 37.5988 36.0588 37.1275 36.0765 36.6528L37.5087 36.676L37.502 35.3732L36.1154 35.3795L36.1096 36.6088L33.3228 36.6578L33.3259 36.4858C33.3323 36.0857 33.3935 35.717 33.0686 35.4063C32.9142 35.338 32.8385 35.3349 32.6761 35.3554C32.4667 35.3819 32.3441 35.4175 32.1499 35.3345C31.8973 34.9887 32.0255 34.509 32.0705 34.1182C31.6416 34.1803 31.2133 34.1844 30.7803 34.1937C30.7708 34.6007 30.6951 35.0207 30.647 35.4262C30.2374 35.4253 29.8296 35.452 29.421 35.4755C29.3747 35.8961 29.3892 36.3234 29.3899 36.7459C30.2781 36.7309 31.1664 36.7263 32.0546 36.732C32.0748 37.1437 32.0577 37.5576 32.0496 37.9694C31.5912 38.0272 31.1497 38.0267 30.6931 37.9566C30.6665 38.4236 30.6716 38.8944 30.6646 39.3621C30.9388 39.3571 31.2496 39.3288 31.5199 39.3661C31.664 39.3859 31.8144 39.4246 31.9016 39.5409C32.1061 39.8142 31.947 40.4153 31.9062 40.7414C31.4544 40.755 31.0091 40.7635 30.5578 40.7395C30.5418 40.2767 30.5804 39.8267 30.6258 39.3659L29.3383 39.3695L29.3347 40.7324C28.8986 40.7607 28.4578 40.7583 28.0207 40.7661C27.9856 39.8754 27.9221 38.9608 27.9965 38.0721L29.2737 38.0733L29.2898 36.7813L28.0254 36.7756C27.9794 35.864 27.9862 34.9943 28.0723 34.0843C28.9364 34.0575 29.8106 34.1596 30.6818 34.1441C30.648 33.2261 30.5156 31.183 30.7696 30.369C31.1921 30.0293 32.7115 30.2658 33.2514 30.3011C33.207 29.476 33.2811 28.6404 33.2915 27.814Z" fill="#F4FFF4"/>
<path d="M33.3991 18.6929C35.0762 18.6464 36.7651 18.6819 38.4435 18.6812C39.4516 18.6807 40.5918 18.5854 41.5826 18.7411C41.8514 19.1312 41.6596 25.7787 41.5257 26.5376C40.4256 26.6397 39.244 26.5444 38.1343 26.5395C36.8781 26.5339 35.5998 26.5974 34.3466 26.5402C34.0802 26.5281 33.8114 26.503 33.5571 26.4252C33.4684 26.398 33.4281 26.4034 33.3916 26.3189C33.3293 26.1746 33.3202 26.0101 33.3143 25.8562C33.2671 24.6155 33.346 23.3607 33.3361 22.1177C33.3288 21.1954 33.2203 20.2442 33.2628 19.3264C33.2733 19.0984 33.3137 18.9065 33.3991 18.6929Z" fill="#F4FFF4"/>
<path d="M34.6991 19.9785L40.2947 19.981C40.1859 21.7363 40.2611 23.517 40.2779 25.2746C38.4434 25.2389 36.6056 25.2722 34.7702 25.2517C34.5531 23.8559 34.6847 21.4655 34.6991 19.9785Z" fill="#43D675"/>
<path d="M36.0332 21.2002C36.9846 21.2385 37.9372 21.243 38.8888 21.2136C38.9234 22.1067 38.9 23.0082 38.9036 23.9024C38.4072 24.022 36.7047 23.9053 36.0882 23.8997L36.0332 21.2002Z" fill="#F4FFF4"/>
<path d="M18.318 32.9076C21.0115 32.8139 23.7547 32.88 26.4518 32.9118C26.7268 34.1969 26.7327 39.3815 26.4013 40.588C25.2566 40.7078 24.0075 40.6105 22.8475 40.6106C21.37 40.6107 19.8377 40.6979 18.3667 40.5943L18.4015 40.4753L18.3034 40.4325C18.1474 39.9333 18.1701 33.4523 18.318 32.9076Z" fill="#F4FFF4"/>
<path d="M19.6876 34.1641C21.5082 34.2243 23.34 34.1852 25.1625 34.203C25.1629 35.9193 25.2474 37.6529 25.1682 39.3665L19.6433 39.3676L19.6355 36.0198C19.6346 35.4307 19.563 34.7399 19.6876 34.1641Z" fill="#43D675"/>
<path d="M20.9727 35.4952C21.5192 35.4882 23.4277 35.3498 23.8137 35.6518C23.9888 36.1479 23.9043 37.5527 23.8127 38.077C22.8633 38.051 21.9315 38.1926 20.9833 38.1883L20.9727 35.4952Z" fill="#F4FFF4"/>
<path d="M18.3829 18.7495C19.2709 18.7241 26.0562 18.6497 26.4045 18.8326C26.5018 18.8838 26.4915 18.8872 26.5219 18.9919C26.5768 19.181 26.5464 25.4426 26.4835 26.003C26.4635 26.1823 26.4203 26.2921 26.3229 26.4467C25.7701 26.5466 18.9829 26.4967 18.3517 26.3806L18.3844 26.2475L18.3241 26.3029C18.1998 25.7286 18.2339 19.2106 18.3829 18.7495Z" fill="#F4FFF4"/>
<path d="M19.6977 19.9867C21.532 19.9365 23.3792 19.9779 25.2148 19.9786C25.2132 21.7032 25.22 23.4769 25.1165 25.1978C23.2933 25.223 21.4681 25.1965 19.6446 25.2025C19.6394 23.4674 19.61 21.7199 19.6977 19.9867Z" fill="#43D675"/>
<path d="M21.0026 21.2814C21.9387 21.2591 22.8839 21.318 23.8213 21.3272C23.8311 22.1948 23.9049 23.118 23.8036 23.9791C22.8639 23.9069 21.9369 23.9342 20.9971 23.9758L21.0026 21.2814Z" fill="#F4FFF4"/>
<path d="M28.1061 18.704C28.5323 18.6882 28.9611 18.6932 29.3876 18.6899L29.3922 20.1378C29.8965 20.1179 31.4976 19.8908 31.8649 20.2128C32.1784 20.4876 32.0732 20.9962 32.0575 21.3558C31.6027 21.4038 31.1279 21.3988 30.6696 21.4161L30.6684 22.6846C31.101 22.6778 31.5323 22.6916 31.9647 22.7045C31.9896 23.1294 31.9538 23.5496 31.9242 23.9735C31.0482 23.9653 30.1721 23.9714 29.2964 23.9918C29.2979 24.8307 29.3065 25.6695 29.3224 26.5083C29.7246 26.5649 30.1349 26.5553 30.5409 26.5598C30.5371 26.1476 30.5513 25.7345 30.5595 25.3224C31.0229 25.3238 31.4724 25.3376 31.9329 25.3885C31.9305 25.8279 32.1317 27.4846 31.9419 27.6924C31.6643 27.9963 31.054 27.903 30.6712 27.8944L30.6637 29.104C30.3322 29.0916 29.6826 29.0055 29.4531 29.2563C29.232 29.4982 29.3202 30.0128 29.33 30.3107L27.9463 30.3198L27.9354 31.5116C28.4107 31.4978 28.8875 31.5016 29.363 31.499C29.4 31.9638 29.3875 32.4308 29.3257 32.8932C29.0037 32.9086 28.4043 32.9967 28.1543 32.7898C27.9158 32.5923 27.9923 31.8885 27.987 31.5998C27.0442 31.6076 26.1013 31.6092 25.1585 31.6042L25.1446 30.3263L26.5439 30.3122C26.561 29.9213 26.5969 29.53 26.6253 29.1397C25.7059 29.0703 24.7464 29.1233 23.8239 29.1352C23.8236 29.9139 23.8373 30.695 23.7958 31.473C23.3377 31.5069 22.8726 31.4952 22.413 31.496C22.4078 31.0901 22.4214 30.6829 22.4274 30.2769C21.9678 30.3056 21.5037 30.2983 21.043 30.3011C21.0378 29.8973 21.0534 29.4925 21.0632 29.0888L22.4292 29.0767L22.4255 27.8409L27.9115 27.8503C27.9673 26.537 27.9492 25.2192 27.9447 23.905L29.2802 23.9149C29.2695 23.0979 29.1959 22.2012 29.3458 21.3965C28.8981 21.4097 28.4565 21.4089 28.0089 21.3928C28.005 20.8804 27.8541 19.0641 28.1061 18.704Z" fill="#F4FFF4"/>
<path d="M18.3933 30.2735C19.2745 30.2368 20.1548 30.2955 21.0361 30.3177C21.042 30.5982 21.1302 31.3208 20.9551 31.5329C20.1194 31.6794 19.1761 31.5056 18.3212 31.5033C18.3187 31.0897 18.297 30.68 18.3933 30.2735Z" fill="#F4FFF4"/>
<path d="M18.3378 27.7359C18.8547 27.7276 19.3669 27.7319 19.8834 27.753C19.8951 28.1813 19.903 28.6007 19.8618 29.028C19.3562 29.064 18.8279 29.029 18.32 29.0228C18.3101 28.5929 18.3223 28.1655 18.3378 27.7359Z" fill="#F4FFF4"/>
<path d="M40.333 27.8537L41.5763 27.8398C41.5901 28.1887 41.6826 28.819 41.4811 29.1164L40.2385 29.1108C40.2282 28.6974 40.1952 28.251 40.333 27.8537Z" fill="#F4FFF4"/>
<path d="M60.0994 23.5237C60.4336 23.4833 60.8031 23.491 61.1418 23.4874C63.1782 23.4652 65.2024 24.1134 66.6645 25.4533C68.4842 27.1212 69.0745 29.5064 69.0786 31.8061C69.0833 34.3166 68.4891 36.846 66.5029 38.67C64.9661 40.0815 62.8222 40.7882 60.6749 40.7627C58.9297 40.7421 57.481 40.1963 56.2681 39.0328L56.2639 42.9213C56.2619 43.4859 56.3795 46.3626 56.2188 46.6415C56.1322 46.7915 55.9863 46.8622 55.8164 46.906C55.4202 47.0082 52.1429 47.0163 51.8499 46.8429C51.7444 46.7805 51.6851 46.6586 51.6583 46.5479C51.517 45.966 51.6291 43.1807 51.629 42.3142L51.6284 30.4604C51.6284 29.5767 51.5084 24.2984 51.7199 23.9762C51.9245 23.9057 52.1233 23.8775 52.3405 23.8634C53.0146 23.8198 55.166 23.7218 55.5999 24.1125C55.988 24.4621 55.9054 25.2683 55.9107 25.7342C56.0259 25.584 56.1392 25.4328 56.2616 25.2876C57.1777 24.2021 58.6673 23.6823 60.0994 23.5237Z" fill="#083861"/>
<path d="M59.5022 27.1623C60.1984 27.0967 60.9014 27.1841 61.5544 27.4176C62.6274 27.8105 63.4474 28.5846 63.9007 29.5634C64.5583 30.9834 64.5342 32.9066 63.9006 34.33C63.3468 35.5737 62.4069 36.349 61.0849 36.8554C60.5601 37.0137 60.0106 37.0894 59.4589 37.0793C58.1702 37.0546 57.1462 36.5732 56.2654 35.7225L56.2559 31.9235C56.2533 31.2215 56.1756 30.4335 56.3178 29.7425C56.4011 29.3382 56.5994 28.9577 56.8531 28.6222C57.4986 27.7684 58.422 27.3382 59.5022 27.1623Z" fill="#FAF8F5"/>
<path d="M77.0899 23.5259C78.4512 23.3735 80.0424 23.46 81.3665 23.7747C82.9316 24.1467 84.3665 24.9368 85.1962 26.2578C85.6391 26.9631 85.8696 27.7713 85.9779 28.5766C86.2699 30.7443 86.1006 33.6008 86.1056 35.8551C86.1078 36.8287 86.2533 39.4336 86.0187 40.2512C85.8858 40.3963 85.697 40.4203 85.5023 40.4439C84.8288 40.5257 82.7709 40.5824 82.2605 40.1994C81.7793 39.8385 81.7302 39.185 81.6779 38.6576C81.6458 38.6921 81.6138 38.7267 81.5804 38.7601C80.2558 40.0818 78.4604 40.6989 76.5387 40.75C74.7679 40.7973 73.0624 40.397 71.7487 39.2551C71.6423 39.1506 71.5385 39.044 71.4457 38.9287C70.5131 37.7701 70.3188 36.2611 70.5424 34.862C70.7462 33.586 71.3693 32.498 72.5035 31.73C74.9777 30.0543 78.6966 30.3757 81.5576 30.7982C81.5582 30.41 81.5614 30.0184 81.5192 29.6317C81.4405 28.9102 81.1576 28.2164 80.5273 27.7552C79.1276 26.731 76.5216 27.0439 74.9617 27.5557C74.3296 27.7631 73.6494 28.1624 72.9826 28.2333C72.6425 28.0413 71.9168 25.7841 71.7196 25.2631C73.0307 24.2114 75.4083 23.6897 77.0899 23.5259Z" fill="#083861"/>
<path d="M78.2925 33.2804C79.364 33.2267 80.4455 33.2542 81.5185 33.2573C81.4861 34.164 81.69 35.1008 81.1082 35.8971C80.4484 36.8005 79.358 37.3139 78.2346 37.5332C77.3914 37.6372 76.5406 37.6072 75.8236 37.1232C75.379 36.8259 75.0866 36.3716 75.0157 35.8676C74.937 35.3094 75.1101 34.7459 75.494 34.31C76.1897 33.519 77.2651 33.3616 78.2925 33.2804Z" fill="#FAF8F5"/>
<path d="M95.3048 23.5255C97.1608 23.3526 99.3221 23.4847 101.021 24.2412C102.361 24.8377 103.376 25.8211 103.87 27.1283C104.138 27.8369 104.245 28.5805 104.298 29.3266C104.374 30.3859 104.466 39.9039 104.248 40.248C104.177 40.3605 103.903 40.4134 103.772 40.4322C103.067 40.5334 101.038 40.6045 100.479 40.1724C100.028 39.8233 99.9896 39.164 99.955 38.6619C98.5597 40.0407 96.8878 40.6775 94.8566 40.7499C93.0695 40.8137 91.3499 40.4161 90.0175 39.2754C89.8907 39.1498 89.7628 39.0227 89.6515 38.8848C88.7404 37.7558 88.5779 36.2267 88.8043 34.87C89.0136 33.6157 89.6357 32.4955 90.7548 31.7394C93.2676 30.0417 96.931 30.3984 99.8296 30.8098C99.8106 29.7769 99.8254 28.6507 98.946 27.8815C97.5825 26.6889 94.7957 27.0438 93.1892 27.5759C92.6158 27.7658 91.8706 28.2131 91.2684 28.24C91.1659 28.1608 91.1198 28.0838 91.0658 27.9727C90.9782 27.793 90.1542 25.6607 90.1446 25.5633C90.1282 25.3978 90.1716 25.2473 90.2883 25.1196C91.0635 24.2731 94.1185 23.6428 95.3048 23.5255Z" fill="#083861"/>
<path d="M96.4168 33.2796C97.4994 33.1626 98.6935 33.254 99.7869 33.2574C99.7935 34.0578 99.9039 34.9766 99.4936 35.7072C98.9311 36.7086 97.8045 37.1969 96.6964 37.5057C95.8103 37.6448 94.8621 37.6472 94.1046 37.1267C93.6504 36.8198 93.3563 36.35 93.2942 35.832C93.2243 35.273 93.4024 34.7117 93.7876 34.2771C94.4444 33.5391 95.4503 33.3694 96.4168 33.2796Z" fill="#FAF8F5"/>
<path d="M5.07036 3.65555C5.43214 3.63005 5.74577 3.62323 6.10071 3.71889C6.90868 3.93652 7.65328 4.48353 8.0437 5.17768C8.26774 5.57616 8.37723 6.04797 8.20438 6.48158C8.02241 6.93847 7.62793 7.18466 7.16579 7.36821C6.7646 7.4111 6.40078 7.3829 6.01429 7.26797C5.25207 7.04129 4.53763 6.54316 4.17103 5.87546C3.95219 5.47686 3.85905 5.00364 4.02568 4.57355C4.20588 4.10844 4.6053 3.8512 5.07036 3.65555Z" fill="#43D675"/>
<path d="M7.09002 11.413C7.5253 11.3666 7.89329 11.384 8.30475 11.53C8.99119 11.7739 9.61072 12.2703 9.90129 12.9044C10.0516 13.2324 10.1211 13.6113 9.96452 13.949C9.78762 14.3309 9.43344 14.5435 9.0344 14.6939C8.68579 14.7476 8.37292 14.7417 8.02913 14.6538C7.347 14.4796 6.68591 14.0408 6.34732 13.4574C6.13975 13.1 6.04737 12.6686 6.18942 12.2758C6.34212 11.8532 6.67666 11.6071 7.09002 11.413Z" fill="#43D675"/>
<path d="M21.4943 5.36182C21.7392 5.37392 21.9745 5.40024 22.2085 5.47322C23.0546 5.73715 23.8184 6.40508 24.1821 7.15669C24.3386 7.47996 24.4558 7.88267 24.2901 8.2231C24.1253 8.5613 23.8235 8.7277 23.4621 8.8485C22.9034 8.82723 22.407 8.67376 21.9384 8.38774C21.1207 7.88855 20.7001 7.21086 20.4961 6.33892C20.5459 6.18522 20.5975 6.01741 20.6764 5.87428C20.8515 5.55677 21.1443 5.45277 21.4943 5.36182Z" fill="#43D675"/>
<path d="M13.6812 3.24446C13.9373 3.22989 14.1912 3.24669 14.4343 3.32918C14.9508 3.50463 15.3953 3.90334 15.6186 4.36728C15.7751 4.69255 15.8278 5.05766 15.6708 5.39127C15.5045 5.74475 15.1892 5.90985 14.8187 6.04487C14.5536 6.05557 14.2982 6.03383 14.0481 5.94452C13.5453 5.76496 13.1075 5.38129 12.8922 4.92276C12.7455 4.61053 12.6939 4.23614 12.8451 3.91651C13.0142 3.55904 13.3062 3.38794 13.6812 3.24446Z" fill="#43D675"/>
</svg>
