<svg width="124" height="121" viewBox="0 0 124 121" fill="none" xmlns="http://www.w3.org/2000/svg">
<path d="M82.9274 12.9665C84.8935 8.53903 82.8375 3.30028 78.1506 2.07465C71.0217 0.210382 63.5827 -0.410677 56.1841 0.264971C45.8343 1.21013 35.8958 4.66246 27.2828 10.3044C18.6698 15.9464 11.6587 23.5969 6.89442 32.5522C2.13014 41.5076 -0.234382 51.4803 0.0183208 61.5531C0.271024 71.6259 3.13284 81.4754 8.34057 90.1957C13.5483 98.916 20.9347 106.227 29.8205 111.457C38.7063 116.686 48.8061 119.666 59.1911 120.123C66.6026 120.449 73.9896 119.482 81.0065 117.291C85.6425 115.844 87.4469 110.497 85.2581 106.161C83.1444 101.975 78.0839 100.328 73.5468 101.516C69.1494 102.667 64.5784 103.158 59.9943 102.957C52.5789 102.631 45.3672 100.503 39.0223 96.7689C32.6775 93.0348 27.4032 87.8143 23.6847 81.5875C19.9661 75.3608 17.9226 68.3278 17.7422 61.1354C17.5617 53.9429 19.2501 46.8219 22.652 40.4274C26.054 34.0329 31.0602 28.5701 37.2103 24.5414C43.3604 20.5128 50.4569 18.0477 57.8472 17.3728C62.416 16.9556 67.0064 17.2308 71.4565 18.1739C76.046 19.1465 81.0233 17.2542 82.9274 12.9665Z" fill="#101046"/>
<path d="M98.6505 98.6505C99.4803 99.4803 99.8952 99.8952 100.399 100.036C100.775 100.142 101.215 100.13 101.584 100.004C102.08 99.8349 102.452 99.4193 103.196 98.5881C107.641 93.6246 111.22 87.9396 113.775 81.7698C116.747 74.5948 118.277 66.9046 118.277 59.1385C118.277 51.3723 116.747 43.6822 113.775 36.5072C111.22 30.3374 107.641 24.6523 103.196 19.6888C102.452 18.8576 102.08 18.442 101.584 18.2731C101.215 18.1473 100.775 18.1351 100.399 18.2404C99.8952 18.3818 99.4803 18.7966 98.6505 19.6264L61.4436 56.8333C60.6115 57.6654 60.1955 58.0814 60.0507 58.5654C59.9389 58.9393 59.9389 59.3377 60.0507 59.7115C60.1955 60.1955 60.6115 60.6115 61.4436 61.4436L98.6505 98.6505Z" fill="#101046"/>
</svg>
