<svg width="45" height="44" viewBox="0 0 45 44" fill="none" xmlns="http://www.w3.org/2000/svg">
<path d="M10.0082 5.35382C11.844 5.19695 13.2794 6.38346 14.1727 7.75141C14.5893 8.3895 14.8978 9.08611 15.3172 9.72196C15.755 10.3857 16.3383 11.0621 17.0066 11.5383C17.4664 11.866 18.1118 12.0723 18.6931 11.9857C18.9966 11.9405 19.3563 11.8205 19.521 11.5614C20.0379 10.7488 18.5929 10.1894 18.483 9.4907C18.4259 9.12747 18.522 8.67858 18.7777 8.39126C18.9636 8.18233 19.2544 8.05495 19.5432 8.03015C20.8489 7.91793 21.891 9.85828 22.8161 10.5214C23.3033 10.8706 23.8927 11.086 24.5141 10.9917C24.8454 10.9413 25.1387 10.7992 25.3253 10.5334C25.9597 9.62925 24.3727 8.94298 24.3176 8.17798C24.3068 8.02886 24.332 7.93203 24.4662 7.8392C25.0751 7.41815 28.6431 7.94989 29.5162 8.12028C34.4919 9.09152 38.917 11.7462 41.6831 15.7403C44.3448 19.5835 45.0819 24.3973 44.0328 28.8291C42.8284 33.9175 39.7101 37.8599 35.0038 40.6573C34.0688 41.1651 33.0881 41.597 32.0729 41.9483C27.4236 43.5264 22.2925 43.352 17.7803 41.4625C11.2399 38.6901 7.10885 32.6442 6.79218 26.0327C6.72502 24.6292 7.17487 22.1289 6.82221 20.9562C6.34917 19.3829 4.28466 19.5029 3.73406 18.0162C3.6285 17.7311 3.62394 17.4184 3.77892 17.1476C3.91514 16.9099 4.15502 16.7448 4.43114 16.6685C4.79597 16.5678 5.16979 16.6274 5.52372 16.7359C7.17677 17.2428 7.31591 18.4432 8.36857 18.9375C8.61453 19.053 8.9217 19.1073 9.18477 19.0073C9.41438 18.9199 9.5468 18.73 9.62866 18.5215C10.2844 16.8527 8.64089 16.1008 8.03631 14.8097C7.87081 14.4564 7.84167 14.1447 7.99943 13.7861C8.11399 13.5259 8.30508 13.302 8.60388 13.2115C9.78035 12.8552 10.1927 14.0868 11.0767 14.4692C11.5288 14.6649 12.0092 14.6216 12.4625 14.4493C12.7958 14.3228 13.0201 14.0755 13.1494 13.7675C13.3007 13.4072 13.2979 13.0558 13.2253 12.6803C12.9287 11.1469 11.4269 10.4331 10.3221 9.44405C9.81215 8.98752 9.35736 8.47164 9.07084 7.86599C8.83717 7.37185 8.6765 6.71179 8.91485 6.19544C9.11608 5.75959 9.5487 5.50906 10.0082 5.35382Z" fill="#43D675"/>
<path d="M29.351 24.5742L30.6887 24.6116C30.8684 25.3957 30.6862 26.2736 30.681 27.0745L29.3746 27.0826L29.3826 28.2836L28.1682 28.2967C28.1217 28.7246 28.0327 29.2677 28.1525 29.6826C28.6839 29.3458 30.1119 29.5989 30.777 29.6032C30.7885 30.0413 30.7975 30.4832 30.6971 30.9133L32.1308 30.8927C32.1134 30.4438 32.142 30.0127 32.1878 29.5659C32.6521 29.5624 33.105 29.5256 33.5664 29.4795L33.5756 27.1845L32.175 27.137L32.1744 28.2722C31.7106 28.2996 31.2635 28.2858 30.8 28.2574L30.7638 27.0631C31.2098 27.0378 31.6666 27.0642 32.1135 27.0725C32.1153 26.659 32.1429 26.2569 32.1891 25.8456L33.5656 25.847L33.5707 24.6112L34.9642 24.6097C34.9591 25.4275 34.9627 26.2452 34.9747 27.063C35.2946 27.0675 35.6219 27.0592 35.9404 27.0773C36.1505 27.0893 36.2316 27.1527 36.3623 27.2981C36.459 27.6124 36.3898 27.9506 36.3579 28.2721C36.7245 28.2562 37.1512 28.1878 37.4705 28.3924C37.6398 28.501 37.7331 28.6481 37.7549 28.8393C37.7879 29.1296 37.6043 29.4146 37.416 29.6286C36.6482 29.7647 35.7507 29.6769 34.9607 29.7276L34.9575 30.9527C35.5725 30.9496 37.2492 30.8258 37.7091 31.0955C37.8021 31.4471 37.7518 31.8731 37.7456 32.237C37.3052 32.2511 36.865 32.269 36.425 32.2907C36.4096 32.6664 36.3767 33.0426 36.3511 33.4178L34.9645 33.426L34.9576 34.8331L36.3242 34.8423C36.4074 35.7177 36.3557 36.6264 36.3485 37.5061C35.8634 37.502 34.0593 37.6691 33.7813 37.427C33.4554 37.1435 33.5604 36.4982 33.5685 36.127C33.9943 36.1238 34.4193 36.0982 34.8443 36.0765L34.8614 34.8325C34.0081 34.8297 33.1548 34.8334 32.3016 34.844L32.2873 34.8832C32.1836 34.872 32.2288 34.8702 32.1517 34.8795L32.1634 35.3879L32.1348 36.1149L30.7868 36.1378L30.7737 37.5075C30.2807 37.5229 29.7954 37.5182 29.3028 37.4963C29.2011 36.6301 29.384 35.715 29.3875 34.8404C30.2964 34.8197 31.2091 34.8346 32.1183 34.8338C32.1054 34.3591 32.1183 33.8877 32.1361 33.4131L33.5683 33.4362L33.5615 32.1335L32.175 32.1397L32.1692 33.369L29.3823 33.418L29.3855 33.2461C29.3918 32.846 29.4531 32.4772 29.1281 32.1665C28.9738 32.0982 28.898 32.0952 28.7357 32.1156C28.5262 32.1422 28.4037 32.1778 28.2094 32.0947C27.9569 31.749 28.0851 31.2692 28.1301 30.8785C27.7012 30.9405 27.2728 30.9446 26.8398 30.9539C26.8303 31.361 26.7547 31.781 26.7065 32.1865C26.297 32.1856 25.8892 32.2122 25.4805 32.2357C25.4343 32.6563 25.4487 33.0837 25.4495 33.5062C26.3377 33.4911 27.226 33.4865 28.1141 33.4923C28.1344 33.9039 28.1173 34.3178 28.1092 34.7297C27.6507 34.7875 27.2092 34.7869 26.7527 34.7169C26.7261 35.1839 26.7311 35.6546 26.7242 36.1223C26.9984 36.1174 27.3092 36.0891 27.5795 36.1263C27.7236 36.1462 27.874 36.1848 27.9612 36.3012C28.1657 36.5745 28.0066 37.1756 27.9657 37.5017C27.514 37.5153 27.0687 37.5238 26.6173 37.4998C26.6014 37.0369 26.64 36.587 26.6854 36.1262L25.3979 36.1297L25.3942 37.4926C24.9582 37.5209 24.5173 37.5186 24.0803 37.5263C24.0452 36.6356 23.9817 35.721 24.0561 34.8324L25.3333 34.8336L25.3494 33.5415L24.085 33.5359C24.039 32.6242 24.0458 31.7545 24.1319 30.8445C24.996 30.8177 25.8702 30.9198 26.7414 30.9043C26.7076 29.9863 26.5751 27.9433 26.8292 27.1293C27.2517 26.7895 28.771 27.0261 29.311 27.0613C29.2665 26.2363 29.3407 25.4007 29.351 24.5742Z" fill="#F4FFF4"/>
<path d="M29.4587 15.4532C31.1358 15.4066 32.8247 15.4421 34.5031 15.4414C35.5112 15.4409 36.6514 15.3456 37.6422 15.5013C37.911 15.8915 37.7191 22.539 37.5853 23.2979C36.4851 23.4 35.3036 23.3047 34.1939 23.2998C32.9376 23.2941 31.6594 23.3577 30.4062 23.3005C30.1398 23.2884 29.871 23.2632 29.6167 23.1854C29.528 23.1583 29.4877 23.1637 29.4512 23.0792C29.3888 22.9349 29.3797 22.7704 29.3739 22.6164C29.3266 21.3757 29.4056 20.121 29.3957 18.8779C29.3883 17.9557 29.2799 17.0044 29.3223 16.0867C29.3328 15.8587 29.3733 15.6668 29.4587 15.4532Z" fill="#F4FFF4"/>
<path d="M30.7587 16.7388L36.3542 16.7412C36.2455 18.4965 36.3207 20.2773 36.3375 22.0349C34.503 21.9992 32.6652 22.0324 30.8298 22.012C30.6127 20.6162 30.7443 18.2258 30.7587 16.7388Z" fill="#43D675"/>
<path d="M32.0928 17.9604C33.0442 17.9988 33.9967 18.0032 34.9484 17.9738C34.983 18.8669 34.9595 19.7685 34.9632 20.6626C34.4667 20.7823 32.7643 20.6656 32.1478 20.6599L32.0928 17.9604Z" fill="#F4FFF4"/>
<path d="M14.3775 29.6679C17.0711 29.5742 19.8143 29.6402 22.5114 29.6721C22.7864 30.9572 22.7923 36.1418 22.4608 37.3483C21.3162 37.468 20.0671 37.3707 18.9071 37.3709C17.4296 37.371 15.8973 37.4582 14.4263 37.3545L14.461 37.2356L14.363 37.1927C14.207 36.6935 14.2296 30.2125 14.3775 29.6679Z" fill="#F4FFF4"/>
<path d="M15.7472 30.9243C17.5678 30.9846 19.3996 30.9455 21.2221 30.9632C21.2225 32.6796 21.307 34.4131 21.2278 36.1268L15.7028 36.1278L15.6951 32.7801C15.6942 32.191 15.6226 31.5001 15.7472 30.9243Z" fill="#43D675"/>
<path d="M17.0322 32.2554C17.5788 32.2485 19.4873 32.11 19.8733 32.412C20.0484 32.9082 19.9639 34.3129 19.8723 34.8373C18.9229 34.8113 17.9911 34.9529 17.0429 34.9485L17.0322 32.2554Z" fill="#F4FFF4"/>
<path d="M14.4424 15.5097C15.3305 15.4843 22.1158 15.41 22.464 15.5928C22.5614 15.644 22.5511 15.6475 22.5815 15.7522C22.6364 15.9412 22.606 22.2028 22.5431 22.7632C22.5231 22.9426 22.4799 23.0523 22.3824 23.207C21.8297 23.3069 15.0425 23.2569 14.4113 23.1408L14.444 23.0078L14.3837 23.0631C14.2593 22.4889 14.2934 15.9708 14.4424 15.5097Z" fill="#F4FFF4"/>
<path d="M15.7573 16.747C17.5916 16.6968 19.4388 16.7382 21.2744 16.7389C21.2728 18.4635 21.2796 20.2372 21.1761 21.958C19.3528 21.9833 17.5277 21.9567 15.7042 21.9627C15.699 20.2277 15.6696 18.4801 15.7573 16.747Z" fill="#43D675"/>
<path d="M17.0622 18.0416C17.9983 18.0193 18.9435 18.0783 19.8808 18.0875C19.8907 18.9551 19.9645 19.8782 19.8632 20.7393C18.9235 20.6672 17.9965 20.6945 17.0566 20.7361L17.0622 18.0416Z" fill="#F4FFF4"/>
<path d="M24.1657 15.4643C24.5918 15.4484 25.0207 15.4535 25.4472 15.4502L25.4518 16.8981C25.9561 16.8782 27.5572 16.651 27.9244 16.973C28.2379 17.2479 28.1328 17.7565 28.117 18.1161C27.6622 18.164 27.1874 18.1591 26.7292 18.1763L26.7279 19.4449C27.1606 19.4381 27.5919 19.4518 28.0243 19.4647C28.0491 19.8897 28.0134 20.3099 27.9837 20.7337C27.1077 20.7255 26.2317 20.7316 25.356 20.7521C25.3575 21.591 25.3661 22.4298 25.3819 23.2686C25.7841 23.3251 26.1945 23.3156 26.6005 23.3201C26.5967 22.9078 26.6109 22.4948 26.6191 22.0827C27.0825 22.0841 27.532 22.0978 27.9925 22.1487C27.9901 22.5882 28.1913 24.2449 28.0015 24.4526C27.7238 24.7565 27.1136 24.6632 26.7307 24.6546L26.7233 25.8643C26.3918 25.8518 25.7422 25.7657 25.5127 26.0166C25.2916 26.2584 25.3798 26.773 25.3895 27.0709L24.0059 27.0801L23.995 28.2719C24.4703 28.258 24.947 28.2619 25.4226 28.2593C25.4596 28.7241 25.4471 29.1911 25.3852 29.6535C25.0632 29.6689 24.4638 29.757 24.2138 29.55C23.9753 29.3525 24.0519 28.6487 24.0466 28.36C23.1038 28.3679 22.1609 28.3694 21.2181 28.3645L21.2041 27.0865L22.6035 27.0724C22.6206 26.6816 22.6565 26.2903 22.6848 25.8999C21.7655 25.8306 20.806 25.8836 19.8835 25.8954C19.8832 26.6742 19.8969 27.4553 19.8553 28.2332C19.3972 28.2672 18.9322 28.2554 18.4726 28.2562C18.4674 27.8504 18.4809 27.4432 18.487 27.0372C18.0274 27.0659 17.5632 27.0586 17.1026 27.0614C17.0974 26.6575 17.113 26.2528 17.1227 25.849L18.4888 25.8369L18.4851 24.6012L23.971 24.6106C24.0269 23.2973 24.0088 21.9795 24.0042 20.6652L25.3397 20.6751C25.3291 19.8582 25.2555 18.9614 25.4054 18.1567C24.9577 18.17 24.5161 18.1692 24.0685 18.1531C24.0646 17.6406 23.9136 15.8244 24.1657 15.4643Z" fill="#F4FFF4"/>
<path d="M14.4529 27.0338C15.3341 26.997 16.2144 27.0558 17.0956 27.078C17.1016 27.3585 17.1898 28.0811 17.0146 28.2932C16.1789 28.4397 15.2356 28.2659 14.3808 28.2636C14.3783 27.8499 14.3566 27.4403 14.4529 27.0338Z" fill="#F4FFF4"/>
<path d="M14.3974 24.4962C14.9143 24.4878 15.4265 24.4922 15.943 24.5132C15.9547 24.9415 15.9625 25.3609 15.9213 25.7882C15.4157 25.8243 14.8874 25.7893 14.3795 25.783C14.3697 25.3532 14.3818 24.9258 14.3974 24.4962Z" fill="#F4FFF4"/>
<path d="M36.3926 24.614L37.6358 24.6001C37.6497 24.949 37.7422 25.5792 37.5407 25.8766L36.2981 25.8711C36.2878 25.4577 36.2547 25.0113 36.3926 24.614Z" fill="#F4FFF4"/>
<path d="M1.12993 0.415802C1.49171 0.390302 1.80534 0.383486 2.16028 0.479141C2.96825 0.696772 3.71285 1.24379 4.10327 1.93793C4.32731 2.33641 4.4368 2.80822 4.26395 3.24184C4.08198 3.69872 3.6875 3.94491 3.22536 4.12846C2.82417 4.17136 2.46035 4.14315 2.07386 4.02822C1.31164 3.80154 0.5972 3.30342 0.230601 2.63571C0.0117564 2.23712 -0.0813818 1.7639 0.0852541 1.3338C0.265449 0.868693 0.664868 0.611459 1.12993 0.415802Z" fill="#43D675"/>
<path d="M3.14959 8.17323C3.58487 8.12682 3.95286 8.14421 4.36432 8.29028C5.05076 8.53411 5.67029 9.0306 5.96086 9.66469C6.11115 9.99267 6.18071 10.3715 6.02409 10.7092C5.84719 11.0912 5.49301 11.3037 5.09397 11.4542C4.74536 11.5079 4.43249 11.502 4.0887 11.4141C3.40657 11.2398 2.74548 10.801 2.40689 10.2177C2.19932 9.86023 2.10694 9.42885 2.24899 9.036C2.40169 8.61343 2.73623 8.36736 3.14959 8.17323Z" fill="#43D675"/>
<path d="M17.5538 2.12207C17.7988 2.13417 18.0341 2.1605 18.268 2.23347C19.1141 2.4974 19.878 3.16534 20.2417 3.91694C20.3982 4.24021 20.5154 4.64293 20.3496 4.98336C20.1849 5.32156 19.8831 5.48795 19.5217 5.60875C18.963 5.58748 18.4666 5.43401 17.998 5.14799C17.1803 4.6488 16.7597 3.97111 16.5557 3.09918C16.6055 2.94547 16.657 2.77767 16.736 2.63454C16.9111 2.31702 17.2038 2.21302 17.5538 2.12207Z" fill="#43D675"/>
<path d="M9.74073 0.00471181C9.99683 -0.00985962 10.2508 0.00694191 10.4938 0.089435C11.0103 0.26488 11.4549 0.663598 11.6781 1.12753C11.8346 1.45281 11.8874 1.81791 11.7303 2.15153C11.5641 2.505 11.2488 2.67011 10.8783 2.80513C10.6132 2.81582 10.3577 2.79408 10.1077 2.70477C9.60488 2.52522 9.16707 2.14154 8.95177 1.68301C8.80503 1.37078 8.75346 0.996391 8.90463 0.67676C9.0738 0.319289 9.36576 0.148193 9.74073 0.00471181Z" fill="#43D675"/>
</svg>
