<svg width="100" height="50" viewBox="0 0 100 50" fill="none" xmlns="http://www.w3.org/2000/svg">
  <path d="M20.5 10C14.7 10 10 14.7 10 20.5C10 26.3 14.7 31 20.5 31C26.3 31 31 26.3 31 20.5C31 14.7 26.3 10 20.5 10ZM20.5 28C16.4 28 13 24.6 13 20.5C13 16.4 16.4 13 20.5 13C24.6 13 28 16.4 28 20.5C28 24.6 24.6 28 20.5 28Z" fill="#1A2B6D"/>
  <path d="M20.5 16C18.0 16 16 18.0 16 20.5C16 23.0 18.0 25 20.5 25C23.0 25 25 23.0 25 20.5C25 18.0 23.0 16 20.5 16ZM20.5 22C19.7 22 19 21.3 19 20.5C19 19.7 19.7 19 20.5 19C21.3 19 22 19.7 22 20.5C22 21.3 21.3 22 20.5 22Z" fill="#1A2B6D"/>
  <path d="M39 15H36V25H39V15Z" fill="#1A2B6D"/>
  <path d="M47.5 15C44.5 15 42 17.5 42 20.5C42 23.5 44.5 26 47.5 26C50.5 26 53 23.5 53 20.5C53 17.5 50.5 15 47.5 15ZM47.5 23C46.1 23 45 21.9 45 20.5C45 19.1 46.1 18 47.5 18C48.9 18 50 19.1 50 20.5C50 21.9 48.9 23 47.5 23Z" fill="#1A2B6D"/>
  <path d="M61.5 15C58.5 15 56 17.5 56 20.5C56 23.5 58.5 26 61.5 26C64.5 26 67 23.5 67 20.5C67 17.5 64.5 15 61.5 15ZM61.5 23C60.1 23 59 21.9 59 20.5C59 19.1 60.1 18 61.5 18C62.9 18 64 19.1 64 20.5C64 21.9 62.9 23 61.5 23Z" fill="#1A2B6D"/>
  <path d="M75 15H70V25H73V22H75C77.2 22 79 20.2 79 18.5C79 16.8 77.2 15 75 15ZM74.5 19H73V18H74.5C74.8 18 75 18.2 75 18.5C75 18.8 74.8 19 74.5 19Z" fill="#1A2B6D"/>
  <path d="M87 15L84 20.5L81 15H78L83 25H85L90 15H87Z" fill="#1A2B6D"/>
  <path d="M36 35H39V36H36V35Z" fill="#1A2B6D"/>
  <path d="M41 35H90V36H41V35Z" fill="#1A2B6D"/>
  <path d="M36 38H90V39H36V38Z" fill="#1A2B6D"/>
</svg>
